<svg width="48" height="48" viewBox="0 0 48 48" fill="none" xmlns="http://www.w3.org/2000/svg">
<rect width="48" height="48" rx="12" fill="#0A0A0A"/>
<path d="M13.7994 38C13.5862 38 13.3944 37.9236 13.2238 37.7709C13.0746 37.6182 13 37.4218 13 37.1818V11.8182C13 11.5782 13.0746 11.3818 13.2238 11.2291C13.3944 11.0764 13.5862 11 13.7994 11H17.2529C17.594 11 17.8498 11.0982 18.0203 11.2945C18.2122 11.4691 18.3295 11.6109 18.3721 11.72L24 22.0618L29.6279 11.72C29.6919 11.6109 29.7985 11.4691 29.9477 11.2945C30.1182 11.0982 30.3847 11 30.7471 11H34.1686C34.4031 11 34.595 11.0764 34.7442 11.2291C34.9147 11.3818 35 11.5782 35 11.8182V33.0909C35 33.3309 34.9147 33.5273 34.7442 33.68C34.595 33.8327 34.4031 33.9091 34.1686 33.9091H30.3634C30.1289 33.9091 29.9264 33.8327 29.7558 33.68C29.6066 33.5273 29.532 33.3309 29.532 33.0909V20.8182L25.9186 27.6582C25.8333 27.8545 25.7054 28.0291 25.5349 28.1818C25.3643 28.3345 25.1298 28.4109 24.8314 28.4109H23.1686C22.8702 28.4109 22.6357 28.3345 22.4651 28.1818C22.2946 28.0291 22.156 27.8545 22.0494 27.6582L18.436 20.8182V37.1818C18.436 37.4218 18.3614 37.6182 18.2122 37.7709C18.063 37.9236 17.8711 38 17.6366 38H13.7994Z" fill="white"/>
</svg>
